<?xml version="1.0" standalone="no"?>
<!DOCTYPE svg PUBLIC "-//W3C//DTD SVG 20010904//EN"
 "http://www.w3.org/TR/2001/REC-SVG-20010904/DTD/svg10.dtd">
<svg version="1.0" xmlns="http://www.w3.org/2000/svg"
 width="300.000000pt" height="300.000000pt" viewBox="0 0 300.000000 300.000000"
 preserveAspectRatio="xMidYMid meet">
<metadata>
Created by potrace 1.10, written by Peter Selinger 2001-2011
</metadata>
<g transform="translate(0.000000,300.000000) scale(0.050000,-0.050000)"
fill="#ffffff" stroke="none">
<path d="M2328 5317 c-45 -10 -99 -34 -120 -54 -21 -20 -50 -32 -63 -28 -13 4
-46 -14 -73 -41 -27 -28 -54 -46 -58 -41 -5 5 -32 -18 -59 -51 -28 -33 -55
-55 -61 -49 -6 6 -21 -8 -33 -31 -12 -23 -15 -42 -7 -43 9 0 0 -9 -19 -21 -19
-11 -35 -30 -35 -42 0 -13 -12 -37 -27 -54 -130 -155 -136 -594 -11 -802 10
-16 27 -50 38 -75 10 -25 29 -45 41 -45 12 0 16 -8 10 -18 -12 -20 126 -162
158 -162 12 -1 43 -23 69 -51 26 -28 60 -46 75 -41 15 6 27 2 27 -9 0 -10 11
-19 25 -19 14 0 52 -15 85 -34 91 -50 435 -48 530 4 39 21 77 36 85 34 8 -2
15 5 15 15 0 11 14 15 30 8 17 -6 30 -1 30 11 0 12 13 22 28 22 15 0 33 14 39
30 7 17 24 30 38 30 36 0 177 140 164 162 -6 10 -2 18 10 18 20 0 55 67 57
108 0 10 8 23 18 30 124 88 110 802 -17 802 -9 0 -17 13 -17 29 0 16 -16 38
-35 49 -19 12 -28 21 -19 21 8 1 5 20 -7 43 -12 23 -26 38 -31 33 -4 -4 -49
31 -100 80 -50 48 -96 83 -102 77 -6 -5 -24 3 -40 19 -16 16 -46 29 -67 29
-22 0 -39 7 -39 17 0 51 -362 78 -532 40z m431 -215 c8 -13 23 -22 33 -19 29
8 108 -24 108 -44 0 -11 13 -19 29 -19 73 0 298 -298 276 -365 -3 -8 2 -15 11
-15 9 0 17 -67 19 -150 2 -104 -5 -150 -21 -150 -18 -1 -18 -4 0 -16 34 -21 9
-104 -31 -106 -22 -1 -25 -5 -7 -12 20 -7 20 -16 2 -38 -12 -15 -17 -28 -10
-28 61 0 -186 -248 -306 -307 -82 -40 -88 -40 -72 -8 7 14 0 10 -15 -9 -15
-19 -59 -37 -97 -41 -38 -4 -80 -14 -94 -22 -13 -9 -24 -8 -24 1 0 9 -43 17
-94 19 -52 2 -98 12 -102 24 -3 11 -21 15 -39 8 -23 -8 -27 -4 -15 15 10 17 8
21 -5 13 -29 -18 -114 16 -164 66 -23 23 -41 36 -41 30 0 -18 -70 59 -110 121
-22 33 -37 67 -34 75 2 8 -4 15 -13 15 -24 0 -57 83 -53 134 2 24 -4 40 -13
34 -26 -16 -20 21 8 51 20 21 20 24 0 13 -14 -8 -25 -7 -25 3 0 9 11 29 25 44
20 21 20 24 0 13 -18 -11 -25 10 -25 77 0 51 9 91 21 91 12 0 17 8 11 17 -14
22 30 163 51 163 10 0 17 11 17 25 0 38 119 175 151 175 16 0 29 9 29 20 0 11
14 20 30 20 17 0 30 9 30 20 0 11 10 20 22 20 12 0 50 13 85 28 111 50 120 51
280 45 95 -4 163 -16 172 -31z"/>
<path d="M5297 4127 c-32 -9 -157 -232 -157 -280 0 -12 -48 -27 -106 -34 -285
-33 -335 -158 -135 -337 87 -78 107 -181 55 -284 -30 -60 16 -185 74 -200 53
-13 172 5 172 26 0 7 28 30 61 50 62 36 199 32 199 -7 0 -33 141 -84 199 -71
88 19 113 100 82 270 l-24 138 91 86 c175 164 140 278 -98 324 -84 15 -138 35
-135 49 3 13 -3 23 -13 23 -10 0 -34 40 -53 89 -56 146 -108 185 -212 158z
m83 -325 c0 -9 19 -22 42 -28 23 -6 37 -20 30 -30 -6 -11 7 -24 30 -30 23 -6
36 -21 29 -33 -8 -12 3 -21 24 -21 68 0 109 -46 94 -106 -7 -30 -25 -54 -39
-54 -14 0 -25 -11 -25 -25 7 -183 -30 -245 -126 -212 -35 12 -100 15 -155 7
-103 -15 -115 -12 -111 25 1 14 -6 25 -16 25 -10 0 -17 11 -14 25 8 44 -25
152 -54 176 -46 38 -34 98 25 124 30 14 91 59 135 100 78 71 131 95 131 57z"/>
<path d="M1590 3587 c-77 -39 -143 -80 -147 -89 -3 -10 -18 -18 -33 -18 -43 0
-318 -252 -383 -352 -31 -46 -30 -52 8 -94 22 -24 52 -70 67 -103 22 -46 49
-64 123 -83 120 -30 108 -28 156 -28 23 0 36 -9 29 -20 -7 -11 0 -20 15 -20
118 0 224 -284 168 -447 -27 -78 -49 -106 -141 -190 -39 -35 -52 -67 -52 -125
0 -87 29 -105 48 -30 26 106 198 200 421 231 152 21 190 40 191 96 0 14 9 25
20 25 11 0 20 21 20 48 0 26 14 59 31 73 25 20 26 29 5 42 -20 13 -19 17 4 17
17 1 51 35 77 77 135 220 494 236 643 30 28 -38 59 -80 70 -93 22 -27 50 -83
102 -207 37 -89 38 -90 258 -117 162 -20 339 -129 362 -222 19 -75 48 -57 48
30 0 58 -13 90 -52 125 -131 120 -149 157 -158 317 -7 116 112 320 185 320 15
0 22 8 16 19 -7 10 31 24 84 31 183 25 194 33 296 224 15 28 -70 149 -94 134
-9 -6 -17 1 -17 16 0 27 -85 120 -164 181 -25 19 -72 56 -103 82 -32 27 -92
60 -135 74 -43 14 -78 33 -78 42 0 8 -13 11 -30 4 -17 -6 -30 -3 -30 8 0 54
-100 64 -133 13 -19 -29 -53 -60 -75 -70 -52 -22 -112 -60 -148 -93 -15 -14
-33 -26 -40 -27 -30 -3 -252 -57 -304 -73 -39 -12 -301 -12 -340 0 -62 20
-212 56 -259 63 -26 4 -59 22 -72 40 -13 17 -37 32 -54 32 -16 0 -41 13 -55
30 -13 16 -32 25 -41 19 -9 -5 -41 22 -70 61 -66 86 -66 86 -239 -3z m190
-203 c17 -4 33 -15 37 -26 3 -10 15 -13 25 -7 10 6 18 1 18 -11 0 -12 8 -17
18 -11 11 6 32 -2 48 -18 16 -16 35 -24 42 -17 6 7 12 1 12 -14 0 -15 6 -21
13 -14 6 7 45 -2 85 -19 71 -31 163 -59 262 -78 89 -18 369 -21 393 -4 12 9
30 15 40 12 9 -2 40 3 68 11 28 8 64 16 80 19 16 2 40 11 54 20 14 8 34 10 45
3 11 -7 20 -2 20 10 0 12 9 17 20 10 11 -7 20 -3 20 7 0 11 20 26 45 33 65 18
184 77 192 95 3 8 29 15 56 15 33 0 44 -8 35 -23 -9 -15 -4 -20 14 -13 43 16
123 -20 106 -47 -10 -16 -4 -20 17 -12 17 7 47 -3 68 -22 20 -19 53 -41 73
-49 20 -7 32 -22 25 -32 -6 -9 8 -22 31 -28 23 -6 36 -21 29 -33 -7 -11 1 -21
18 -21 17 0 31 -17 31 -39 0 -44 -55 -81 -98 -66 -16 6 -22 1 -15 -11 8 -12
-12 -26 -47 -34 -33 -7 -60 -23 -60 -35 0 -12 -5 -17 -11 -10 -17 16 -195
-168 -228 -236 -33 -69 -29 -56 -49 -165 -13 -72 -21 -82 -45 -62 -22 19 -34
19 -53 0 -19 -19 -17 -23 6 -16 17 4 23 4 16 -1 -8 -4 -20 -8 -27 -8 -14 1
-149 221 -149 243 0 9 -14 21 -31 28 -17 6 -27 20 -20 30 6 9 -8 22 -31 28
-23 6 -36 21 -29 33 7 11 0 21 -17 21 -16 0 -37 13 -46 29 -9 15 -25 29 -36
30 -46 4 -90 25 -81 39 5 9 -28 17 -74 19 -45 2 -88 10 -94 18 -14 19 -64 19
-94 -1 -13 -8 -60 -16 -104 -17 -45 -2 -77 -11 -71 -20 6 -10 -17 -23 -50 -30
-34 -6 -57 -19 -52 -27 6 -9 -17 -26 -50 -37 -33 -12 -60 -26 -60 -33 0 -7 9
-7 20 0 11 7 20 3 20 -9 0 -11 -19 -21 -41 -21 -23 0 -36 -8 -30 -19 7 -10 0
-26 -15 -35 -15 -9 -33 -32 -40 -52 -8 -20 -23 -31 -34 -24 -11 7 -15 -1 -8
-19 7 -17 2 -31 -10 -31 -12 0 -22 -13 -22 -30 0 -16 -10 -30 -21 -30 -12 0
-16 -8 -10 -18 6 -9 -5 -30 -23 -45 -23 -18 -29 -19 -19 -2 10 17 5 21 -16 13
-17 -7 -26 -20 -20 -30 6 -10 3 -18 -8 -18 -24 0 -67 118 -52 142 6 10 1 18
-12 18 -13 0 -18 14 -12 30 7 17 2 30 -9 30 -12 0 -18 10 -14 23 5 13 -12 46
-38 73 -25 27 -39 59 -32 72 7 12 5 15 -4 7 -21 -19 -73 24 -58 48 6 10 4 16
-6 13 -9 -3 -58 24 -110 59 -51 36 -105 65 -120 66 -46 1 -96 52 -96 97 0 51
95 148 126 129 12 -8 14 -3 5 11 -10 16 0 29 27 36 23 6 42 18 42 27 0 23 176
104 198 90 11 -6 25 -2 33 11 8 12 20 15 27 5 6 -9 26 -20 42 -23z"/>
<path d="M622 2908 c-23 -29 -36 -61 -30 -71 6 -10 -1 -16 -16 -12 -14 3 -25
-11 -23 -30 1 -19 -6 -35 -16 -35 -11 0 -14 -9 -7 -20 7 -11 2 -20 -11 -20
-13 0 -18 -14 -12 -31 16 -41 -45 -64 -212 -79 -143 -14 -187 -40 -207 -122
-13 -50 24 -168 53 -168 109 0 178 -181 138 -358 -53 -230 102 -314 318 -172
101 67 183 90 183 53 0 -27 198 -123 253 -123 127 0 160 77 131 307 -18 141
18 240 82 228 13 -3 22 6 19 20 -3 14 4 25 15 25 26 0 100 120 100 162 0 71
-90 134 -212 148 -196 22 -210 31 -256 151 -78 202 -198 263 -290 147z m194
-320 c35 -39 64 -65 64 -57 0 7 13 3 30 -11 16 -13 24 -33 18 -43 -6 -10 -4
-17 6 -15 9 1 23 1 31 -2 25 -8 54 -15 76 -17 12 -2 16 -12 9 -23 -7 -11 1
-14 19 -8 24 9 30 0 27 -40 -3 -34 -14 -49 -30 -43 -16 6 -26 -6 -26 -28 0
-21 -12 -50 -26 -65 -14 -14 -28 -66 -31 -116 -7 -127 -22 -173 -45 -138 -14
23 -18 23 -18 -2 -1 -23 -8 -21 -31 9 -21 28 -29 31 -30 10 0 -21 -8 -18 -30
10 -18 23 -29 28 -29 12 0 -17 -9 -20 -25 -8 -28 19 -69 20 -115 1 -157 -66
-181 -56 -193 79 -5 53 -33 144 -62 202 -58 118 -50 143 50 151 33 2 57 11 52
19 -5 8 -1 15 9 15 26 0 124 94 124 119 0 12 14 21 31 21 17 0 26 9 19 20 -33
54 71 11 126 -52z"/>
<path d="M4268 2905 c-20 -30 -35 -62 -32 -70 2 -8 -4 -15 -13 -15 -9 0 -29
-36 -43 -81 -28 -83 -47 -105 -100 -112 -16 -2 -83 -9 -148 -17 -122 -14 -212
-77 -212 -148 0 -42 74 -162 100 -162 11 0 18 -11 15 -25 -3 -14 6 -23 19 -20
64 12 100 -87 82 -228 -34 -274 80 -399 246 -270 27 21 68 44 93 52 25 7 45
22 45 32 0 50 160 -7 243 -86 20 -19 62 -35 92 -35 186 1 208 68 133 402 -9
41 0 58 45 88 49 31 92 73 186 184 28 33 26 83 -4 117 -14 15 -36 41 -49 57
-14 16 -82 35 -160 43 -174 18 -229 39 -213 78 6 17 1 31 -12 31 -13 0 -18 9
-11 20 7 11 3 20 -8 20 -11 0 -16 14 -9 30 6 17 1 30 -11 30 -12 0 -22 10 -22
22 0 107 -191 155 -252 63z m197 -322 c38 -42 84 -82 103 -90 19 -7 30 -20 25
-28 -5 -8 14 -16 41 -18 100 -6 126 -167 27 -167 -8 0 -16 -11 -17 -25 -29
-271 -64 -330 -147 -251 -35 33 -199 34 -233 1 -78 -73 -139 -29 -146 105 -3
58 -21 123 -43 155 -21 30 -30 55 -21 56 9 0 0 9 -19 21 -52 30 -42 75 20 91
30 7 79 29 107 49 29 20 58 33 65 27 7 -5 9 -3 3 4 -16 22 33 68 57 54 13 -8
16 -6 8 3 -18 20 41 90 76 90 13 0 56 -35 94 -77z"/>
<path d="M2499 2524 c-91 -41 -178 -169 -163 -239 3 -14 -4 -25 -15 -25 -12 0
-21 -13 -21 -30 0 -16 -8 -30 -18 -30 -11 0 -29 -30 -41 -68 -25 -74 -88 -142
-116 -125 -40 25 -425 -60 -465 -102 -71 -76 -76 -225 -7 -225 17 0 23 -10 15
-23 -8 -13 51 -84 142 -170 l156 -148 -14 -125 c-16 -152 -26 -224 -42 -310
-38 -202 125 -306 312 -200 43 24 78 51 78 61 0 9 9 12 20 5 11 -7 20 -3 20 9
0 11 7 20 15 18 23 -5 92 27 121 57 34 33 114 33 148 0 29 -30 98 -62 121 -57
8 2 15 -7 15 -18 0 -12 10 -15 22 -8 11 7 34 -5 50 -27 58 -83 308 -110 308
-33 0 16 8 29 18 29 31 0 40 111 20 242 -11 70 -25 179 -32 242 l-11 115 147
141 c82 77 145 154 142 170 -3 17 7 30 23 30 35 0 60 88 41 147 -34 108 -116
139 -498 185 -62 8 -130 71 -130 120 0 15 -9 28 -20 28 -11 0 -19 7 -18 15 8
49 -6 85 -34 85 -17 0 -27 11 -22 25 18 52 -82 210 -148 233 -71 25 -75 25
-119 6z m121 -347 c0 -20 10 -37 22 -37 12 0 17 -14 10 -31 -6 -18 -3 -26 8
-19 17 11 30 -20 15 -35 -9 -10 169 -175 189 -175 10 0 13 -8 7 -18 -6 -10 30
-24 79 -31 50 -7 90 -20 90 -27 0 -8 30 -15 67 -16 156 -4 169 -47 53 -168
-44 -46 -80 -92 -80 -102 0 -10 -8 -18 -18 -18 -35 0 -109 -191 -110 -285 -1
-52 5 -95 13 -95 23 0 18 -196 -5 -210 -31 -19 -103 10 -87 35 7 11 5 16 -5
10 -31 -18 -112 22 -96 48 9 16 4 20 -15 13 -16 -7 -60 2 -98 20 -96 43 -131
44 -212 3 -39 -20 -84 -31 -100 -25 -17 6 -26 0 -23 -15 4 -16 -19 -33 -54
-41 -33 -7 -51 -14 -40 -16 32 -4 -37 -41 -78 -42 -46 0 -39 321 7 336 20 7
20 13 -2 28 -20 14 -21 22 -3 29 16 6 11 22 -15 48 -22 22 -39 53 -39 69 0 17
-9 30 -20 30 -11 0 -20 20 -20 43 0 24 -6 38 -13 30 -15 -15 -79 69 -71 93 3
10 -3 12 -13 6 -10 -6 -30 2 -43 18 -14 17 -17 30 -7 30 9 0 4 9 -12 19 -80
50 -12 122 103 108 31 -3 56 2 56 12 0 9 45 23 99 31 55 7 98 20 95 29 -2 8
32 50 76 93 82 80 90 92 90 129 0 12 9 16 20 9 11 -7 14 1 8 19 -7 17 -2 31
11 31 13 0 18 8 12 18 -6 9 8 41 32 71 46 59 117 28 117 -52z"/>
<path d="M1342 1649 c-14 -40 -47 -81 -74 -93 -26 -13 -48 -28 -48 -36 0 -16
-13 -18 -160 -32 -92 -9 -127 -3 -213 40 -57 29 -118 52 -136 52 -82 0 -59
-172 35 -260 l64 -60 405 0 c283 0 417 -7 444 -24 22 -14 45 -19 51 -12 14 13
-32 96 -53 96 -7 0 -60 45 -117 100 -57 55 -98 100 -91 100 7 0 2 19 -10 41
-12 23 -25 61 -30 84 -14 75 -40 77 -67 4z"/>
<path d="M3701 1683 c-12 -24 -17 -43 -11 -43 6 0 -3 -27 -20 -60 -17 -33 -25
-60 -19 -60 7 0 -53 -62 -134 -139 -132 -125 -175 -207 -76 -145 27 17 161 24
444 24 l406 0 63 58 c92 84 117 262 37 262 -16 0 -80 -24 -141 -52 -115 -55
-316 -63 -347 -14 -7 11 -34 27 -60 35 -28 9 -61 47 -83 95 -34 77 -37 79 -59
39z"/>
</g>
</svg>
