 <svg  version="1.0" xmlns="http://www.w3.org/2000/svg"  width="300.000000pt" height="300.000000pt" viewBox="0 0 300.000000 300.000000"  preserveAspectRatio="xMidYMid meet">  <g transform="translate(0.000000,300.000000) scale(0.050000,-0.050000)" fill="#ffffff" stroke="none"> <path d="M2842 5449 c-60 -27 -129 -70 -154 -95 -24 -24 -92 -84 -149 -134 -58 -49 -128 -111 -157 -137 -29 -26 -112 -102 -186 -167 -183 -165 -222 -298 -133 -457 125 -222 671 -223 786 -1 32 63 30 62 321 135 66 16 164 43 217 58 54 16 116 29 139 29 22 0 241 50 487 111 542 135 593 125 604 -112 6 -126 -14 -154 -135 -191 -40 -11 -70 -29 -69 -40 7 -39 80 -681 127 -1121 29 -278 -28 -402 -230 -500 -33 -16 -102 -53 -153 -83 -51 -30 -168 -93 -260 -142 -92 -48 -171 -93 -177 -100 -5 -6 -55 -34 -110 -62 -55 -27 -130 -70 -167 -94 -37 -25 -100 -50 -140 -56 -231 -37 -408 -117 -493 -225 -32 -39 -273 -302 -356 -387 -42 -43 -71 -78 -65 -78 6 0 -5 -18 -24 -40 -46 -54 -93 -50 -125 10 -15 28 -34 50 -42 50 -14 0 -151 119 -276 240 -29 28 -94 84 -146 125 -51 42 -128 110 -170 151 -42 41 -107 99 -146 127 -178 131 -292 258 -256 285 31 23 28 31 -37 92 -65 62 -105 62 -107 0 0 -5 -45 -59 -100 -120 -54 -60 -120 -139 -145 -175 -54 -78 -74 -80 -123 -15 l-37 50 -88 -94 c-48 -52 -87 -97 -87 -101 0 -4 -19 -27 -42 -51 -24 -24 -60 -71 -80 -104 -21 -33 -38 -54 -38 -47 0 8 -36 -23 -80 -68 -93 -95 -95 -101 -35 -140 25 -17 76 -58 114 -91 38 -34 77 -57 85 -51 9 5 16 0 16 -12 0 -12 38 -56 83 -97 46 -41 121 -108 167 -149 46 -41 91 -68 100 -60 9 8 11 5 3 -8 -7 -12 8 -36 33 -52 25 -17 77 -62 117 -102 39 -39 77 -66 84 -59 7 7 13 0 13 -16 0 -26 122 -138 150 -138 7 0 50 -38 95 -85 45 -47 90 -83 100 -80 10 4 12 -3 5 -15 -7 -11 8 -28 34 -38 25 -10 90 -65 144 -123 l98 -105 41 58 c23 32 84 103 136 158 52 55 127 141 167 190 40 50 114 136 166 193 191 209 232 257 228 272 -2 8 3 13 12 10 10 -3 67 54 128 125 62 72 129 145 149 162 56 49 167 173 167 187 0 66 264 251 359 251 111 0 293 80 691 304 88 49 232 129 320 176 231 124 231 124 308 190 230 197 236 262 121 1248 -38 330 -38 362 9 362 50 0 132 188 132 301 0 296 -193 422 -523 342 -92 -22 -205 -46 -252 -53 -47 -8 -90 -22 -96 -32 -7 -10 -19 -14 -27 -9 -15 9 -379 -75 -442 -102 -16 -7 -49 -15 -73 -18 -41 -6 -440 -100 -512 -121 -19 -6 -67 -52 -105 -102 -39 -51 -70 -85 -70 -77 0 9 -22 1 -49 -17 -116 -75 -375 -36 -429 65 -54 101 -46 111 526 603 32 28 74 67 95 89 142 149 440 41 593 -214 40 -68 50 -68 133 -4 l67 51 -161 169 c-237 247 -396 299 -613 198z m-1724 -3101 c21 -17 81 -71 133 -120 52 -48 96 -88 99 -88 2 0 48 -40 102 -89 286 -261 350 -318 485 -434 81 -70 173 -145 205 -167 54 -38 80 -110 40 -110 -10 0 -53 -36 -94 -80 -93 -98 -103 -98 -174 -10 -31 39 -67 70 -80 70 -14 0 -92 68 -175 151 -82 83 -176 164 -209 180 -33 16 -77 54 -98 84 -39 57 -239 225 -268 225 -8 0 -50 41 -91 90 -42 50 -84 86 -94 79 -56 -34 -10 88 51 137 39 31 70 69 70 85 0 38 50 37 98 -3z m-318 -338 c0 -14 14 -31 30 -37 17 -7 30 -26 30 -44 0 -17 10 -25 21 -18 12 7 27 -6 33 -29 6 -23 18 -37 27 -31 9 5 24 -2 33 -17 9 -15 32 -33 52 -40 22 -8 31 -24 22 -39 -8 -14 -7 -18 2 -10 22 20 73 -24 57 -50 -7 -12 -4 -16 6 -9 11 6 72 -37 136 -97 63 -60 124 -109 133 -109 10 0 18 -14 18 -30 0 -17 7 -29 15 -28 45 7 63 -5 51 -35 -8 -22 -5 -29 9 -20 12 8 34 -3 49 -23 14 -20 42 -43 62 -50 20 -8 32 -22 25 -32 -6 -9 8 -22 31 -28 23 -6 36 -20 30 -31 -7 -11 8 -23 33 -27 25 -4 43 -17 41 -29 -3 -13 17 -28 42 -35 80 -20 77 -152 -3 -152 -14 0 -23 -8 -20 -18 3 -9 -19 -39 -48 -66 -46 -44 -69 -49 -160 -38 -7 1 -58 45 -112 97 -54 52 -102 95 -107 96 -24 3 -98 82 -98 105 0 14 -8 21 -18 15 -26 -16 -125 69 -109 94 7 12 4 16 -7 9 -11 -7 -85 50 -164 125 -80 76 -146 137 -148 136 -12 -9 -94 79 -94 101 0 14 -8 21 -19 15 -10 -7 -28 4 -39 24 -12 19 -21 27 -21 18 -1 -10 -14 -7 -31 7 -16 13 -24 34 -17 45 7 12 4 15 -8 8 -26 -16 -70 35 -50 57 8 9 4 10 -10 2 -34 -20 -67 68 -37 100 12 13 30 19 40 13 10 -6 13 -3 7 7 -16 26 65 120 133 155 63 33 152 -1 152 -57z"/> <path d="M1115 2178 c-48 -27 -44 -103 6 -134 91 -57 172 43 98 117 -44 44 -55 46 -104 17z"/> <path d="M1756 4810 c-120 -82 -174 -243 -129 -391 14 -47 9 -54 -61 -75 -124 -37 -192 -159 -178 -320 9 -107 5 -128 -24 -139 -138 -53 -238 -241 -201 -378 21 -75 17 -88 -26 -94 -155 -23 -242 -295 -152 -474 44 -87 333 -275 380 -246 8 5 15 2 15 -7 0 -9 47 -38 105 -64 58 -26 164 -75 235 -108 319 -150 582 -9 554 296 l-12 123 68 24 c119 43 196 186 183 339 -11 122 -10 126 41 146 127 48 197 185 177 348 -13 99 -10 110 24 110 116 0 257 307 189 414 -30 48 -154 -54 -157 -130 -6 -120 -196 -205 -278 -126 -10 10 -37 22 -59 25 -22 4 -44 12 -50 17 -15 15 -416 212 -509 249 -136 55 -170 272 -51 317 43 16 57 32 48 54 -8 16 -18 55 -23 85 -12 67 -17 68 -109 5z m197 -668 c257 -126 422 -202 444 -202 11 0 23 -9 27 -21 3 -11 27 -22 51 -24 118 -9 128 -272 13 -316 -80 -30 -174 -21 -228 21 -27 22 -57 39 -66 40 -9 0 -81 31 -160 68 -269 127 -327 152 -350 152 -13 0 -24 10 -24 21 0 12 -8 16 -18 10 -54 -33 -109 148 -71 237 48 117 167 121 382 14z m-338 -405 c14 -2 25 -12 25 -22 0 -9 8 -12 18 -6 10 6 22 4 25 -5 8 -19 435 -229 540 -265 168 -59 157 -318 -14 -350 -38 -8 -81 -5 -94 6 -14 11 -47 27 -75 35 -27 9 -178 77 -334 153 -156 75 -290 137 -298 137 -73 0 -109 161 -58 259 40 79 67 84 265 58z m-5 -595 c517 -238 510 -233 510 -346 0 -180 -241 -258 -360 -117 -5 7 -86 47 -180 89 -93 42 -225 103 -293 134 -196 89 -242 206 -129 320 82 81 114 76 452 -80z"/> <path d="M4709 2758 l-59 -62 85 -76 c47 -41 85 -83 85 -92 0 -19 -183 -193 -280 -266 -38 -28 -109 -90 -158 -137 -48 -47 -124 -115 -170 -150 -96 -75 -91 -71 -247 -220 -67 -63 -131 -115 -142 -115 -11 0 -37 -27 -56 -60 -43 -72 -101 -78 -126 -12 -10 26 -36 60 -57 75 -22 15 -82 80 -134 144 -88 108 -160 155 -303 201 -37 11 -47 3 -67 -57 -28 -87 -17 -106 71 -122 43 -8 89 -38 122 -76 29 -35 76 -79 105 -98 28 -19 44 -35 35 -35 -25 0 101 -154 243 -295 69 -69 118 -125 110 -125 -9 0 26 -43 78 -95 109 -110 236 -256 236 -270 0 -5 43 -53 96 -107 53 -54 115 -124 137 -156 l41 -58 98 105 c54 58 119 113 144 123 26 10 41 27 34 38 -7 12 -5 19 4 15 10 -3 46 24 81 60 35 36 74 65 88 65 13 0 18 6 11 13 -7 7 27 39 77 72 49 32 89 73 89 90 0 18 6 26 12 19 7 -6 53 26 102 72 49 46 102 91 118 100 16 9 23 25 17 36 -7 10 -4 17 5 13 31 -9 346 269 346 306 0 10 7 17 17 14 9 -3 55 26 102 64 47 39 99 79 114 91 41 29 19 70 -74 139 -43 32 -79 64 -79 72 0 18 -124 174 -226 284 l-89 95 -37 -50 c-49 -65 -69 -63 -123 15 -25 36 -82 106 -127 155 -45 50 -123 142 -173 205 -106 134 -101 133 -176 53z m271 -407 c0 -16 31 -54 70 -85 61 -49 107 -171 51 -137 -10 7 -52 -29 -94 -79 -41 -49 -85 -90 -96 -90 -12 0 -60 -36 -107 -80 -47 -44 -92 -80 -100 -80 -8 0 -32 -27 -54 -60 -22 -33 -51 -60 -65 -60 -14 0 -25 -9 -25 -20 0 -11 -12 -20 -27 -20 -15 0 -63 -38 -106 -85 -112 -119 -240 -235 -260 -235 -10 0 -44 -31 -77 -70 -77 -89 -87 -88 -197 23 -108 107 -112 127 -38 172 30 18 87 63 125 99 39 36 116 105 170 152 145 126 277 245 476 430 97 90 199 176 225 190 27 14 49 34 49 45 0 10 18 19 40 19 22 0 40 -13 40 -29z m414 -317 c25 -22 39 -49 32 -60 -7 -11 -3 -14 9 -7 24 14 105 -77 105 -117 0 -29 -81 -136 -93 -124 -5 5 -42 -24 -83 -65 -183 -183 -327 -302 -350 -289 -13 8 -17 7 -9 -2 20 -22 -24 -73 -50 -57 -12 8 -15 3 -7 -10 8 -14 -1 -29 -22 -37 -20 -7 -43 -25 -52 -39 -9 -15 -29 -27 -45 -27 -16 0 -27 -8 -24 -17 6 -22 -245 -255 -268 -248 -9 3 -15 -5 -12 -18 3 -13 -22 -38 -55 -55 -33 -18 -67 -41 -75 -52 -9 -13 -22 -9 -35 10 -11 17 -20 23 -20 14 0 -8 -13 -4 -28 10 -15 14 -23 34 -17 44 6 10 2 12 -10 5 -11 -7 -32 1 -45 17 -14 17 -19 30 -12 30 6 0 -6 18 -28 40 -22 22 -40 50 -40 62 0 43 346 345 370 322 9 -7 10 -3 3 10 -8 13 8 39 37 60 28 20 80 63 117 96 243 221 301 267 321 256 12 -7 15 -5 7 4 -21 23 25 72 52 57 13 -8 16 -6 7 4 -8 9 36 68 98 131 120 121 141 126 222 52z"/> <path d="M4779 2159 c-69 -69 7 -164 94 -117 62 33 58 116 -8 140 -35 13 -56 7 -86 -23z"/> </g> </svg> 