<?xml version="1.0" standalone="no"?>
<!DOCTYPE svg PUBLIC "-//W3C//DTD SVG 20010904//EN"
 "http://www.w3.org/TR/2001/REC-SVG-20010904/DTD/svg10.dtd">
<svg version="1.0" xmlns="http://www.w3.org/2000/svg"
 width="300.000000pt" height="300.000000pt" viewBox="0 0 300.000000 300.000000"
 preserveAspectRatio="xMidYMid meet">
<metadata>
Created by potrace 1.10, written by Peter Selinger 2001-2011
</metadata>
<g transform="translate(0.000000,300.000000) scale(0.050000,-0.050000)"
fill="#ffffff" stroke="none">
<path d="M1720 5528 c-137 -26 -304 -73 -354 -99 -31 -16 -76 -29 -100 -29
-72 0 -72 -37 0 -67 77 -32 154 -120 154 -176 0 -36 3 -36 62 -6 207 107 670
116 861 18 31 -17 57 -23 57 -15 0 9 7 7 15 -5 8 -11 80 -59 160 -106 80 -47
141 -94 134 -104 -6 -11 -1 -19 13 -19 25 0 88 -63 138 -140 17 -25 41 -57 55
-71 14 -14 25 -39 25 -55 0 -16 14 -40 30 -54 17 -14 30 -41 30 -61 0 -20 8
-42 18 -48 10 -6 24 -49 31 -96 8 -47 23 -132 35 -189 25 -119 -8 -433 -56
-534 -16 -32 -28 -70 -28 -83 0 -14 -7 -29 -15 -32 -8 -4 -31 -38 -50 -77
-222 -436 -815 -680 -1317 -541 -165 46 -358 134 -358 163 0 11 -9 15 -20 8
-11 -7 -26 2 -32 19 -7 17 -21 31 -31 31 -25 0 -157 133 -157 159 0 11 -18 29
-41 41 -22 12 -35 30 -30 39 6 9 -3 22 -19 28 -17 7 -30 29 -30 51 0 22 -9 45
-20 52 -137 85 -162 798 -33 948 15 18 33 48 39 67 16 43 64 45 98 4 47 -56
146 -149 159 -149 52 0 103 506 69 687 l-14 73 -144 -1 c-205 -1 -550 -46
-579 -76 -25 -26 -8 -46 139 -159 51 -40 59 -108 16 -144 -16 -14 -30 -38 -30
-53 0 -16 -14 -56 -31 -89 -150 -290 -154 -798 -8 -1113 21 -46 39 -92 39
-102 0 -9 27 -54 60 -100 33 -45 60 -86 60 -91 0 -45 288 -322 400 -383 38
-22 80 -49 93 -61 13 -12 76 -42 140 -67 65 -24 131 -51 148 -60 120 -63 791
-64 839 -2 6 8 67 35 137 60 69 26 141 61 158 79 18 18 37 32 44 33 61 4 399
304 378 336 -4 7 13 27 38 44 25 17 59 60 75 95 16 35 38 78 48 94 138 218
212 847 122 1050 -14 33 -29 72 -32 87 -5 28 -58 151 -89 208 -51 93 -70 126
-80 135 -5 6 -41 50 -80 100 -106 138 -267 280 -390 345 -37 19 -72 44 -79 55
-7 11 -32 20 -57 20 -24 0 -62 12 -84 28 -98 69 -559 132 -729 100z m-718
-583 c25 -156 7 -202 -76 -195 -24 2 -40 -3 -35 -11 5 -8 -8 -19 -28 -24 -40
-10 -52 162 -16 220 16 27 151 35 155 10z"/>
<path d="M4340 5144 c-16 -8 -55 -31 -85 -51 l-55 -38 0 -388 0 -389 55 -48
c74 -66 184 -66 259 -2 l56 48 6 348 c7 386 -3 436 -101 496 -69 42 -87 45
-135 24z"/>
<path d="M2364 4669 c-47 -49 -89 -89 -94 -89 -15 0 -170 -168 -170 -184 0 -9
-12 -16 -27 -16 -15 0 -47 -26 -72 -58 -37 -50 -59 -59 -135 -59 -165 0 -241
-238 -109 -345 32 -26 42 -68 54 -240 13 -178 19 -253 27 -322 4 -32 84 -36
130 -6 47 32 49 41 55 299 6 220 13 274 42 306 20 21 35 70 35 111 0 56 17 90
75 153 41 44 111 122 155 173 44 52 101 117 127 146 176 198 89 321 -93 131z"/>
<path d="M3460 4729 c0 -17 13 -56 29 -88 109 -211 149 -742 72 -956 l-38
-105 838 0 839 0 0 -1290 c0 -1287 -11 -1505 -75 -1442 -5 6 -23 -3 -39 -19
-25 -25 -290 -29 -1894 -29 -2026 0 -1858 -7 -1956 86 -3 2 -10 377 -15 832
l-11 829 -100 55 c-55 30 -137 86 -182 125 -46 39 -86 68 -90 64 -23 -22 14
-1931 37 -1954 14 -14 25 -41 25 -62 0 -46 184 -225 278 -271 117 -55 3933
-52 4052 4 44 21 87 50 96 65 9 15 29 27 45 27 16 0 29 12 29 27 0 14 22 46
48 71 113 106 115 136 108 1952 l-6 1660 -46 100 c-99 214 -278 327 -547 345
l-157 11 0 -218 c0 -330 -86 -507 -275 -569 -81 -28 -310 -13 -321 20 -4 11
-16 21 -27 21 -113 0 -197 211 -197 495 l0 245 -260 0 c-221 0 -260 -5 -260
-31z m1714 -234 c25 -11 39 -30 32 -41 -8 -13 1 -16 21 -8 18 7 33 4 33 -7 0
-10 0 -23 0 -29 0 -5 19 -29 42 -52 22 -22 36 -54 30 -70 -6 -15 -4 -28 5 -28
13 0 18 -600 6 -639 -2 -5 -21 11 -44 35 -22 24 -50 44 -61 44 -11 0 -15 8 -9
19 7 10 -31 24 -84 31 -52 7 -108 19 -125 28 -16 9 -110 15 -207 14 -169 -2
-244 18 -155 42 23 6 37 19 31 28 -6 10 -3 18 7 18 23 0 172 142 179 170 18
67 30 90 48 90 10 0 15 7 9 16 -5 9 2 39 16 66 14 27 21 60 17 74 -5 13 0 24
10 24 10 0 15 44 12 99 -7 122 46 144 187 76z m-1301 -402 c8 -24 13 -50 11
-58 -2 -8 10 -15 26 -15 17 0 30 -13 30 -28 0 -15 14 -33 31 -40 17 -6 26 -20
20 -30 -6 -11 7 -22 29 -26 23 -3 42 -15 42 -26 0 -11 18 -27 40 -35 23 -8 36
-21 31 -30 -12 -19 -256 -18 -289 2 -13 9 -24 5 -24 -7 0 -12 -8 -18 -17 -12
-13 8 -18 287 -6 356 6 29 62 -9 76 -51z"/>
<path d="M3400 2990 l0 -190 190 0 190 0 0 190 0 190 -190 0 -190 0 0 -190z"/>
<path d="M4194 2990 c2 -105 9 -190 15 -190 6 0 92 0 191 0 l180 0 0 190 0
190 -195 0 -195 0 4 -190z"/>
<path d="M1839 2390 c-1 0 -2 -84 -4 -188 l-3 -187 189 0 189 0 2 182 c1 101
-3 183 -10 184 -8 1 -342 9 -363 9z"/>
<path d="M2628 2382 c-4 -5 -8 -90 -8 -190 l0 -182 191 0 190 0 -5 188 -6 189
-177 1 c-97 1 -180 -2 -185 -6z"/>
<path d="M3407 2368 c-5 -12 -6 -95 -3 -186 l6 -164 185 -4 185 -4 0 190 0
190 -183 0 c-112 0 -185 -8 -190 -22z"/>
<path d="M4205 2385 c-8 -3 -13 -87 -12 -187 l4 -183 192 -2 192 -3 -5 189 -6
189 -175 1 c-96 0 -182 -1 -190 -4z"/>
<path d="M1830 1411 l0 -191 192 0 192 0 -2 185 -3 185 -189 6 -190 5 0 -190z"/>
<path d="M2620 1410 l0 -190 190 0 190 0 0 190 0 190 -190 0 -190 0 0 -190z"/>
<path d="M3400 1410 l0 -190 190 0 190 0 0 190 0 190 -190 0 -190 0 0 -190z"/>
<path d="M4200 1442 c0 -87 -5 -173 -12 -190 -11 -28 14 -32 190 -32 l202 0 0
190 0 190 -190 0 -190 0 0 -158z"/>
</g>
</svg>
