<?xml version="1.0" standalone="no"?>
<!DOCTYPE svg PUBLIC "-//W3C//DTD SVG 20010904//EN"
 "http://www.w3.org/TR/2001/REC-SVG-20010904/DTD/svg10.dtd">
<svg version="1.0" xmlns="http://www.w3.org/2000/svg"
 width="300.000000pt" height="300.000000pt" viewBox="0 0 300.000000 300.000000"
 preserveAspectRatio="xMidYMid meet">
<metadata>
Created by potrace 1.10, written by Peter Selinger 2001-2011
</metadata>
<g transform="translate(0.000000,300.000000) scale(0.050000,-0.050000)"
fill="#ffffff" stroke="none">
<path d="M585 5707 c-18 -8 -25 -83 -25 -279 l0 -268 1365 0 1365 0 -5 264
c-3 186 -12 268 -30 279 -27 17 -2628 21 -2670 4z m1404 -167 c52 -20 63 -63
38 -155 -12 -46 -13 -46 -354 -40 l-343 5 -6 79 c-10 120 17 131 339 131 151
0 297 -9 326 -20z m497 -9 c27 -20 35 -48 30 -104 l-6 -77 -134 -6 c-119 -5
-136 -1 -156 36 -29 55 -7 155 36 166 73 20 196 11 230 -15z m-1626 -16 c1
-17 7 -15 22 5 17 25 23 25 32 3 9 -23 14 -23 28 0 15 23 21 23 36 0 14 -23
19 -23 30 0 10 23 14 23 24 0 11 -23 16 -23 30 0 15 22 21 22 38 -3 11 -16 20
-21 21 -10 2 11 10 -6 20 -38 19 -65 4 -112 -23 -69 -14 21 -17 20 -18 -6 0
-27 -24 -33 -140 -33 -77 0 -140 8 -140 17 0 10 -13 13 -30 6 -23 -8 -30 4
-30 51 0 42 10 62 30 62 17 0 30 9 30 20 0 11 9 20 20 20 11 0 20 -11 20 -25z
m2190 5 c-7 -11 -2 -20 10 -20 13 0 20 -27 16 -65 l-6 -65 -160 -2 c-201 -3
-296 79 -182 157 34 23 336 18 322 -5z"/>
<path d="M560 3580 l0 -1360 850 0 849 0 -18 48 c-18 47 -29 160 -24 245 4 62
149 229 236 271 145 71 406 7 472 -115 14 -25 55 -105 93 -177 37 -73 73 -132
80 -132 6 0 10 390 7 868 -4 581 1 883 15 915 34 74 74 140 82 134 5 -4 26 7
48 23 37 28 40 53 40 335 l0 305 -1365 0 -1365 0 0 -1360z m1506 1178 c79 -12
172 -35 207 -50 35 -15 77 -28 95 -28 18 0 32 -8 32 -19 0 -10 20 -25 44 -32
53 -17 274 -239 314 -315 16 -30 36 -54 45 -54 10 0 17 -12 17 -27 0 -15 16
-57 35 -95 57 -112 50 -618 -11 -733 -25 -47 -40 -85 -34 -85 7 0 -7 -20 -29
-44 -23 -24 -41 -52 -41 -62 0 -29 -186 -213 -216 -213 -15 -1 -21 -10 -14
-21 7 -11 -2 -20 -19 -20 -17 0 -47 -16 -67 -35 -20 -19 -52 -38 -72 -41 -21
-4 -61 -17 -90 -29 -97 -40 -132 -44 -373 -44 -194 1 -250 7 -289 35 -27 19
-69 34 -94 34 -26 0 -63 16 -85 35 -21 19 -50 44 -65 55 -94 72 -225 197 -245
235 -13 25 -34 63 -45 85 -111 206 -116 230 -116 489 0 263 -4 244 116 501 38
80 257 320 293 320 7 0 31 17 53 37 22 20 73 43 114 51 41 8 74 21 74 30 0 9
65 25 145 36 80 11 152 22 161 23 9 2 81 -7 160 -19z m-895 -22 c21 -21 -11
-58 -37 -43 -13 7 -18 6 -10 -2 22 -25 -23 -94 -50 -78 -13 7 -18 6 -10 -3 8
-8 -7 -42 -35 -74 -27 -33 -49 -67 -49 -78 0 -10 -15 -18 -33 -18 -19 0 -28
-6 -21 -13 7 -7 -3 -36 -22 -65 -20 -28 -56 -95 -81 -147 -25 -52 -50 -95 -55
-95 -21 0 -4 586 18 609 24 26 360 32 385 7z m1892 -1 c25 -216 1 -412 -47
-382 -13 7 -17 4 -9 -9 8 -11 5 -26 -4 -32 -16 -10 -83 69 -84 97 0 6 -35 48
-78 95 -43 46 -74 92 -68 101 5 9 -2 14 -17 10 -14 -3 -25 11 -23 30 1 19 -4
30 -13 25 -9 -5 -26 3 -39 19 -39 46 32 70 214 70 118 1 166 -6 168 -24z
m-2223 -1399 c20 -46 32 -93 26 -103 -7 -11 -2 -13 11 -5 13 8 23 6 23 -4 0
-10 22 -50 48 -90 27 -39 43 -77 35 -86 -7 -8 -2 -8 12 0 15 9 31 1 39 -20 16
-44 80 -108 106 -108 11 0 20 -14 20 -31 0 -17 9 -26 20 -19 11 7 26 -2 32
-19 7 -17 25 -31 40 -31 15 0 28 -13 28 -30 0 -17 7 -29 15 -28 41 6 105 -30
105 -59 1 -26 4 -27 18 -6 10 17 22 19 29 7 7 -11 44 -25 83 -33 38 -7 70 -22
70 -33 0 -11 11 -18 25 -15 14 2 112 -3 218 -12 l193 -15 -7 -80 c-5 -72 -29
-136 -29 -79 0 12 -10 23 -21 23 -12 0 -16 -9 -9 -20 14 -22 -1122 -29 -1178
-8 -28 11 -32 74 -32 500 0 514 9 561 80 404z m2055 -306 c0 -59 -29 -84 -60
-53 -16 16 -12 33 15 63 45 50 45 50 45 -10z"/>
<path d="M1712 4519 c-65 -20 -125 -47 -132 -60 -8 -12 -20 -21 -27 -20 -105
17 -324 -268 -384 -499 -47 -183 18 -495 123 -581 15 -13 28 -35 28 -49 0 -80
256 -234 470 -282 176 -39 570 52 570 132 0 12 8 18 17 12 9 -6 51 25 94 69
42 43 69 79 59 79 -11 0 1 14 25 31 51 36 145 318 145 436 0 210 -219 613
-334 613 -14 0 -26 7 -26 16 0 21 -123 80 -240 116 -119 37 -244 32 -388 -13z
m83 -352 c71 -19 68 -260 -3 -278 -131 -33 -161 -10 -168 129 -7 158 27 188
171 149z m424 -26 c68 -126 8 -267 -110 -257 l-79 6 -6 128 c-7 143 6 161 110
162 44 0 71 -13 85 -39z m-782 -230 c6 -51 -21 -90 -62 -91 -18 0 -20 84 -3
129 19 49 57 26 65 -38z m1026 34 c2 -19 3 -46 2 -60 0 -13 7 -20 16 -14 9 5
15 -8 14 -29 -3 -32 -10 -35 -41 -19 -21 12 -32 33 -26 50 7 16 3 24 -8 17
-11 -7 -20 -3 -20 8 0 11 9 25 20 32 12 7 15 21 9 31 -6 11 -2 19 10 19 11 0
22 -16 24 -35z m-809 -317 c163 -164 429 -164 536 -1 72 111 230 84 230 -39 0
-375 -934 -388 -994 -15 -23 140 110 172 228 55z"/>
<path d="M3352 4095 l-53 -64 2 -1067 c1 -797 -4 -1074 -22 -1095 -63 -76
-186 -8 -228 126 -7 25 -22 45 -32 45 -11 0 -19 10 -19 23 0 12 -27 66 -60
120 -33 54 -60 111 -60 128 0 17 -13 35 -30 42 -16 6 -25 19 -19 29 6 10 2 18
-10 18 -11 0 -19 7 -16 15 10 33 -76 145 -128 166 -179 74 -306 -104 -206
-288 31 -57 87 -164 124 -238 37 -74 77 -135 88 -135 10 0 15 -7 10 -16 -6 -8
21 -65 58 -125 37 -60 68 -120 69 -134 0 -14 8 -25 19 -25 10 0 25 -20 32 -44
8 -24 58 -117 112 -207 53 -89 97 -173 97 -185 0 -13 9 -24 20 -24 11 0 20
-22 20 -50 0 -27 9 -50 20 -50 10 0 25 -22 32 -50 7 -27 20 -50 30 -50 10 0
18 -13 18 -30 0 -16 19 -49 42 -72 23 -23 44 -53 46 -67 2 -14 19 -49 38 -77
19 -29 34 -61 34 -72 0 -11 34 -45 75 -76 41 -31 87 -67 102 -81 14 -14 34
-20 45 -14 10 6 18 2 18 -9 0 -27 96 -76 248 -127 242 -80 992 -44 992 48 0 9
12 17 27 17 14 0 47 22 73 50 26 27 50 47 54 43 10 -11 206 171 206 191 0 17
78 136 102 156 83 67 108 266 108 867 l0 597 -60 48 c-126 100 -260 39 -299
-138 -24 -104 -24 -104 -108 -110 -104 -8 -121 27 -108 216 12 161 -71 280
-194 280 -85 0 -181 -93 -181 -177 0 -103 -65 -143 -169 -103 -49 18 -51 25
-51 187 0 149 -5 173 -48 219 -119 128 -301 61 -316 -116 -7 -93 -75 -132
-171 -98 l-55 19 -5 773 -5 773 -53 42 c-83 65 -189 55 -255 -24z m228 -1655
c22 -22 40 -49 40 -60 0 -11 7 -19 15 -17 8 2 41 -7 74 -21 88 -36 151 -20
240 62 45 41 84 66 88 55 3 -10 14 -14 24 -9 9 6 23 -20 30 -57 15 -81 159
-235 239 -256 69 -19 127 4 218 84 79 70 132 58 132 -29 0 -24 11 -55 24 -68
13 -13 18 -24 11 -24 -31 0 124 -134 177 -154 108 -41 130 -46 118 -26 -7 11
-3 20 9 20 11 0 56 32 98 70 128 116 126 124 119 -425 l-6 -495 -66 -131 c-75
-149 -231 -329 -267 -307 -14 9 -18 5 -9 -9 9 -14 -1 -29 -22 -36 -20 -7 -51
-26 -69 -42 -19 -15 -46 -30 -60 -32 -15 -2 -36 -10 -47 -17 -42 -26 -246 -52
-370 -47 -203 9 -380 33 -380 52 0 10 -12 13 -26 8 -72 -28 -437 238 -402 294
8 13 6 18 -6 11 -11 -7 -42 30 -67 82 -26 52 -64 115 -83 141 -20 26 -31 56
-25 65 6 10 2 18 -8 18 -19 0 -55 80 -44 98 2 4 -4 13 -13 20 -48 32 -230 379
-214 406 9 13 5 17 -9 8 -14 -9 -23 1 -23 26 0 40 1 40 82 3 136 -60 303 29
362 193 13 36 29 66 35 66 6 0 10 117 8 260 -3 267 4 289 73 220z"/>
<path d="M560 1754 c0 -180 8 -274 24 -290 18 -18 283 -24 1071 -24 l1048 0
-42 53 c-22 29 -41 65 -41 80 0 15 -9 27 -20 27 -10 0 -25 23 -32 50 -7 28
-20 50 -30 50 -10 0 -16 7 -13 15 5 17 -84 169 -111 187 -9 7 -15 16 -13 20 3
5 -2 28 -9 53 l-15 45 -908 0 -909 0 0 -266z m1651 37 c74 -113 21 -160 -186
-167 l-182 -5 -12 58 c-31 140 -5 163 181 163 156 0 169 -3 199 -49z m-594 7
c-15 -10 -17 -18 -4 -18 12 0 22 -22 22 -50 0 -27 -8 -50 -17 -50 -9 0 -12
-12 -6 -28 7 -19 -10 -30 -61 -36 -39 -4 -71 -3 -71 3 0 6 -146 10 -325 9
-361 -2 -395 8 -395 105 0 45 10 66 35 71 80 16 848 10 822 -6z"/>
</g>
</svg>
